<?xml version="1.0" encoding="UTF-8"?><svg id="uuid-67cfedbf-8216-48e8-8ef2-3a2629aeac34" xmlns="http://www.w3.org/2000/svg" viewBox="0 0 216.42 216.42"><g id="uuid-9cb86de1-0155-4e67-81bb-3e6d3122e3fc"><g><g><circle cx="108.21" cy="108.21" r="101.21" style="fill:#ff4c77;"/><path d="M108.21,14c51.95,0,94.21,42.26,94.21,94.21s-42.26,94.21-94.21,94.21S14,160.16,14,108.21,56.26,14,108.21,14m0-14C48.45,0,0,48.45,0,108.21s48.45,108.21,108.21,108.21,108.21-48.45,108.21-108.21S167.97,0,108.21,0h0Z" style="fill:#fff;"/></g><path d="M121.59,80.06h7.69v-13.4c-1.33-.18-5.89-.59-11.21-.59-11.09,0-18.69,6.98-18.69,19.8v11.8h-12.24v14.98h12.24v37.7h15.01v-37.7h11.75l1.86-14.98h-13.62v-10.32c0-4.33,1.17-7.29,7.2-7.29h0Z" style="fill:#fff;"/></g></g></svg>