<?xml version="1.0" encoding="UTF-8"?><svg id="uuid-b2802d06-461c-4e60-8e73-7bd476635e8a" xmlns="http://www.w3.org/2000/svg" viewBox="0 0 92.04 219.85"><g id="uuid-71229892-1248-41e9-bb1b-63dc7dfb28a6"><g><path d="M13.49,219.44c27.36,4.36,65.31-26.81,74.2-62.54C106.26,107.96,61.69,34.62,24.03,15.99c17.68,5.57,35.7,13.39,50.9,14.28,4.93,.29,2.55-8.02-1.83-10.42C51.39,8.15,30.79,6.2,7.27,.23,2.39-.92-1.05,2.4,.86,6.13c-.97,1.19-1.23,2.82-.21,4.49,12.56,20.61,17.11,42.06,15.98,61.69-.34,5.13,7.45,8.69,9.99,3.01,5.58-13.32,6.62-28.84,1.54-44.42,21.7,11.91,54.53,63.99,53.37,91.7,6.57,36.97-26.26,89.64-62.24,86.76" style="fill:#fced6d;"/><path d="M12.47,218.89c1.76,1.37,5.26,.46,7.67-2.14,2.42-2.58,2.71-5.72,.81-6.94-1.91-1.23-5.19-.22-7.46,2.22-2.27,2.43-2.79,5.47-1.02,6.85Z" style="fill:#fced6d;"/></g></g></svg>